Zambesia on l천bus animafilm, mille peategelaseks on noor pistrik nimega Kai. Film jutustab hoogsa loo Kai seiklustest ja koomilistest juhtumitest, millesse ta satub teel Madagaskari ja Rio l채heduses asuvasse lindude paradiisilinna - Zambesiasse. Zambesias leiab Kai uusi s천pru, kes aitavad teda kohaneda nii uutes oludes kui ka linna 채hvardavates ohtudes.

Video
ID                             : 0
Format                         : MPEG-4 Visual
Format profile                 : Advanced Simple@L5
Format settings, BVOP          : 4
Format settings, QPel          : No
Format settings, GMC           : No warppoints
Format settings, Matrix        : Default (H.263)
Codec ID                       : XVID
Codec ID/Hint                  : XviD
Duration                       : 1h 19mn
Bit rate                       : 1 613 Kbps
Width                          : 720 pixels
Height                         : 384 pixels
Display aspect ratio           : 1.85:1
Frame rate                     : 25.000 fps
Color space                    : YUV
Chroma subsampling             : 4:2:0
Bit depth                      : 8 bits
Scan type                      : Progressive
Compression mode               : Lossy
Bits/(Pixel*Frame)             : 0.233
Stream size                    : 912 MiB (66%)
Writing library                : XviD 73

Audio #1
ID                             : 1
Format                         : AC-3
Format/Info                    : Audio Coding 3
Mode extension                 : CM (complete main)
Format settings, Endianness    : Big
Codec ID                       : 2000
Duration                       : 1h 19mn
Bit rate mode                  : Constant
Bit rate                       : 384 Kbps
Channel(s)                     : 6 channels
Channel positions              : Front: L C R, Side: L R, LFE
Sampling rate                  : 48.0 KHz
Bit depth                      : 16 bits
Compression mode               : Lossy
Stream size                    : 217 MiB (16%)
Alignment                      : Aligned on interleaves
Interleave, duration           : 64 ms (1.60 video frames)
Interleave, preload duration   : 192 ms
Title                          : est

Audio #2
ID                             : 2
Format                         : AC-3
Format/Info                    : Audio Coding 3
Mode extension                 : CM (complete main)
Format settings, Endianness    : Big
Codec ID                       : 2000
Duration                       : 1h 19mn
Bit rate mode                  : Constant
Bit rate                       : 448 Kbps
Channel(s)                     : 6 channels
Channel positions              : Front: L C R, Side: L R, LFE
Sampling rate                  : 48.0 KHz
Bit depth                      : 16 bits
Compression mode               : Lossy
Stream size                    : 253 MiB (18%)
Alignment                      : Aligned on interleaves
Interleave, duration           : 64 ms (1.60 video frames)
Interleave, preload duration   : 192 ms
Title                          : eng

